<svg width="124" height="25" viewBox="0 0 124 25" fill="none" xmlns="http://www.w3.org/2000/svg">
<path d="M0.85561 21.2632C0.285204 20.5578 0 19.9295 0 19.3783C0 18.8051 0.471683 18.0556 1.41505 17.1296C1.96352 16.6005 2.54489 16.336 3.15918 16.336C3.77346 16.336 4.62907 16.8871 5.72601 17.9894C6.03315 18.3642 6.47193 18.728 7.04233 19.0807C7.61274 19.4114 8.13927 19.5767 8.62192 19.5767C10.6622 19.5767 11.6824 18.739 11.6824 17.0635C11.6824 16.5564 11.3972 16.1376 10.8268 15.8069C10.2783 15.4541 9.58722 15.2006 8.75355 15.0463C7.91988 14.892 7.02039 14.6495 6.05509 14.3188C5.08979 13.9661 4.1903 13.5582 3.35663 13.0952C2.52295 12.6323 1.82091 11.9048 1.25051 10.9127C0.702039 9.89859 0.427805 8.68607 0.427805 7.27513C0.427805 5.3351 1.14081 3.64859 2.56683 2.21561C4.01479 0.760582 5.9783 0.0330684 8.45738 0.0330684C9.7737 0.0330684 10.9694 0.209436 12.0444 0.56217C13.1413 0.892857 13.8982 1.23457 14.315 1.5873L15.1377 2.21561C15.8178 2.85494 16.1579 3.39506 16.1579 3.83598C16.1579 4.2769 15.8946 4.88316 15.3681 5.65476C14.6222 6.75706 13.8543 7.3082 13.0645 7.3082C12.6038 7.3082 12.0334 7.08774 11.3533 6.64683C11.2875 6.60273 11.1558 6.4925 10.9584 6.31614C10.7829 6.13977 10.6183 5.99647 10.4648 5.88624C10.0041 5.59965 9.41171 5.45635 8.68774 5.45635C7.9857 5.45635 7.39335 5.63272 6.9107 5.98545C6.44999 6.31614 6.21963 6.79012 6.21963 7.40741C6.21963 8.00265 6.49386 8.48766 7.04233 8.86243C7.61274 9.23721 8.31478 9.49074 9.14845 9.62302C9.98212 9.75529 10.8926 9.96473 11.8798 10.2513C12.8671 10.5159 13.7775 10.8466 14.6112 11.2434C15.4449 11.6402 16.1359 12.3347 16.6844 13.3267C17.2548 14.2967 17.54 15.4982 17.54 16.9312C17.54 18.3642 17.2548 19.6318 16.6844 20.7341C16.114 21.8144 15.3681 22.6521 14.4467 23.2474C12.6696 24.4158 10.7719 25 8.75355 25C7.72243 25 6.74616 24.8787 5.82473 24.6362C4.90331 24.3717 4.15739 24.052 3.58698 23.6773C2.42423 22.9718 1.6125 22.2884 1.15178 21.627L0.85561 21.2632Z" fill="#FFC107"/>
<path d="M24.7801 1.12434C25.153 1.49912 25.3395 2.13845 25.3395 3.04233V3.57143C25.3395 4.12258 25.3176 4.53042 25.2737 4.79497C25.1201 6.73501 24.5497 8.39947 23.5625 9.78836C22.5752 11.1772 21.3247 11.8717 19.8109 11.8717C19.6574 11.8717 19.5148 11.7615 19.3831 11.541C19.2734 11.2985 19.2186 10.9899 19.2186 10.6151C19.2186 10.2403 19.2625 9.9537 19.3502 9.75529C19.4599 9.53483 19.5696 9.41358 19.6793 9.39154C19.8109 9.34744 19.9097 9.3254 19.9755 9.3254C20.0413 9.30335 20.1619 9.24824 20.3375 9.16005C20.513 9.04982 20.6665 8.90653 20.7982 8.73016C21.1492 8.2672 21.3466 7.55071 21.3905 6.58069C20.6446 6.47046 20.0852 6.22795 19.7122 5.85318C19.3612 5.4784 19.1857 4.68475 19.1857 3.47222C19.1857 2.59039 19.2954 1.94004 19.5148 1.52116C19.7341 1.08025 20.0632 0.793652 20.502 0.661377C20.9627 0.507055 21.6648 0.429895 22.6081 0.429895C23.5515 0.429895 24.2755 0.661376 24.7801 1.12434Z" fill="#FFC107"/>
<path d="M40.0594 10.0529H45.8513C47.0359 10.097 47.7599 10.4056 48.0232 10.9788C48.2426 11.3977 48.3523 12.015 48.3523 12.8307V20.1058C48.3523 20.8113 48.0451 21.4837 47.4308 22.123C45.588 24.041 42.8237 25 39.138 25C35.8691 25 33.0281 23.7654 30.6148 21.2963C28.2016 18.8051 26.9949 15.8069 26.9949 12.3016C26.9949 8.7963 28.2235 5.87522 30.6806 3.53836C33.1378 1.17945 36.0337 0 39.3684 0C41.9571 0 44.4033 0.859788 46.7069 2.57937C47.2992 3.02028 47.5954 3.51632 47.5954 4.06746C47.5954 4.59656 47.3431 5.21385 46.8385 5.91931C45.9829 7.08774 45.2041 7.67196 44.502 7.67196C44.0852 7.67196 43.4161 7.37434 42.4946 6.7791C41.5732 6.16182 40.4763 5.85318 39.2038 5.85318C37.5365 5.85318 36.0556 6.44841 34.7612 7.63889C33.4668 8.80732 32.8197 10.3505 32.8197 12.2685C32.8197 14.1645 33.4778 15.7848 34.7941 17.1296C36.1105 18.4524 37.6023 19.1138 39.2696 19.1138C40.4763 19.1138 41.5622 18.9153 42.5275 18.5185V14.914H39.9278C39.2477 14.914 38.7651 14.8258 38.4798 14.6495C38.1946 14.4731 38.0082 14.2196 37.9204 13.8889C37.8327 13.5362 37.7888 13.0732 37.7888 12.5C37.7888 11.9048 37.8327 11.4308 37.9204 11.078C38.0301 10.7253 38.2166 10.4828 38.4798 10.3505C38.8747 10.1521 39.4013 10.0529 40.0594 10.0529Z" fill="#FFC107"/>
<path d="M50.9805 3.33995C50.9805 2.83289 50.9915 2.45811 51.0135 2.21561C51.0573 1.95106 51.167 1.65344 51.3425 1.32275C51.6497 0.727514 52.5053 0.429895 53.9094 0.429895C55.4451 0.429895 56.3555 0.837743 56.6407 1.65344C56.7504 2.02822 56.8053 2.60141 56.8053 3.37302V21.7593C56.8053 22.2884 56.7833 22.6742 56.7395 22.9167C56.7175 23.1592 56.6188 23.4458 56.4433 23.7765C56.1361 24.3717 55.2805 24.6693 53.8765 24.6693C52.3408 24.6693 51.4413 24.2504 51.178 23.4127C51.0464 23.06 50.9805 22.4978 50.9805 21.7262V3.33995Z" fill="#FFC107"/>
<path d="M77.2358 5.32407C77.8062 6.49251 78.0914 7.79321 78.0914 9.22619C78.0914 10.6592 77.8062 11.9599 77.2358 13.1283C76.6654 14.2747 75.9304 15.1896 75.031 15.873C73.21 17.284 71.3233 17.9894 69.3708 17.9894H65.2573V21.7262C65.2573 22.2332 65.2353 22.619 65.1914 22.8836C65.1695 23.1261 65.0708 23.4127 64.8953 23.7434C64.5881 24.3386 63.7325 24.6362 62.3284 24.6362C60.7927 24.6362 59.8932 24.2284 59.63 23.4127C59.4983 23.0379 59.4325 22.4647 59.4325 21.6931V3.33995C59.4325 2.83289 59.4435 2.45811 59.4654 2.21561C59.5093 1.95106 59.619 1.65344 59.7945 1.32275C60.1017 0.727514 60.9573 0.429895 62.3613 0.429895H69.4037C71.3343 0.429895 73.21 1.13536 75.031 2.5463C75.9304 3.22972 76.6654 4.15564 77.2358 5.32407ZM69.4037 12.1362C70.0618 12.1362 70.709 11.8937 71.3453 11.4087C71.9815 10.9237 72.2996 10.1962 72.2996 9.22619C72.2996 8.25617 71.9815 7.52866 71.3453 7.04365C70.709 6.5366 70.0509 6.28307 69.3708 6.28307H65.2573V12.1362H69.4037Z" fill="#FFC107"/>
<path d="M95.1324 1.32275C95.3079 0.992065 95.6041 0.760583 96.0209 0.628307C96.4378 0.496032 96.9643 0.429895 97.6005 0.429895C98.2367 0.429895 98.7413 0.485009 99.1143 0.595238C99.4872 0.705467 99.7725 0.837743 99.9699 0.992065C100.167 1.14638 100.321 1.36684 100.431 1.65344C100.54 2.02822 100.595 2.60141 100.595 3.37302V21.7262C100.595 22.2332 100.573 22.619 100.529 22.8836C100.507 23.1261 100.409 23.4127 100.233 23.7434C99.926 24.3386 99.0704 24.6362 97.6663 24.6362C96.1306 24.6362 95.2311 24.2284 94.9679 23.4127C94.8362 23.0379 94.7704 22.4647 94.7704 21.6931V14.9802H86.0498V21.7262C86.0498 22.2332 86.0278 22.619 85.984 22.8836C85.962 23.1261 85.8633 23.4127 85.6878 23.7434C85.3806 24.3386 84.525 24.6362 83.121 24.6362C81.5852 24.6362 80.6858 24.2284 80.4225 23.4127C80.2909 23.0379 80.225 22.4647 80.225 21.6931V3.33995C80.225 2.83289 80.236 2.45811 80.2579 2.21561C80.3018 1.95106 80.4115 1.65344 80.587 1.32275C80.8942 0.727514 81.7498 0.429895 83.1539 0.429895C84.6896 0.429895 85.6 0.837743 85.8852 1.65344C85.9949 2.02822 86.0498 2.60141 86.0498 3.37302V10.119H94.7704V3.33995C94.7704 2.83289 94.7814 2.45811 94.8033 2.21561C94.8472 1.95106 94.9569 1.65344 95.1324 1.32275Z" fill="#FFC107"/>
<path d="M122.388 0.892857C123.463 1.64242 124 2.36993 124 3.0754C124 3.49427 123.748 4.07848 123.243 4.82804L116.135 15.5093V21.8254C116.135 22.3325 116.113 22.7183 116.069 22.9828C116.047 23.2253 115.948 23.5119 115.773 23.8426C115.597 24.1733 115.301 24.4048 114.884 24.537C114.468 24.6693 113.908 24.7355 113.206 24.7355C112.504 24.7355 111.945 24.6693 111.528 24.537C111.111 24.4048 110.815 24.1733 110.639 23.8426C110.464 23.4899 110.354 23.1922 110.31 22.9497C110.288 22.6852 110.277 22.2884 110.277 21.7593V15.5093L103.169 4.82804C102.665 4.07848 102.412 3.49427 102.412 3.0754C102.412 2.36993 102.895 1.69753 103.86 1.0582C104.826 0.396826 105.517 0.0661387 105.933 0.0661387C106.35 0.0661387 106.679 0.154322 106.921 0.330688C107.294 0.573193 107.689 1.02513 108.105 1.68651L113.206 9.88757L118.307 1.68651C118.724 1.02513 119.086 0.595239 119.393 0.396826C119.7 0.176368 120.051 0.0661387 120.446 0.0661387C120.863 0.0661387 121.51 0.341712 122.388 0.892857Z" fill="#FFC107"/>
</svg>
